<?xml version="1.0" encoding="utf-8"?>
<!-- Generator: Adobe Illustrator 16.0.0, SVG Export Plug-In . SVG Version: 6.00 Build 0)  -->
<!DOCTYPE svg PUBLIC "-//W3C//DTD SVG 1.0//EN" "http://www.w3.org/TR/2001/REC-SVG-20010904/DTD/svg10.dtd">
<svg version="1.0" id="Layer_1" xmlns="http://www.w3.org/2000/svg" xmlns:xlink="http://www.w3.org/1999/xlink" x="0px" y="0px"
	 width="800px" height="800px" viewBox="0 0 800 800" enable-background="new 0 0 800 800" xml:space="preserve">
<g>
	<path fill-rule="evenodd" clip-rule="evenodd" fill="#14498E" d="M25.781,681.966c-3.442,0.272-6.882,0.012-10.322-0.047
		c-1.032-0.017-2.081-0.304-3.097,0.128c0-0.213,0-0.426,0-0.639c2.924,0.433,5.823-0.158,8.736-0.211
		c1.562-0.029,3.115-0.396,4.686-0.109C25.783,681.38,25.782,681.673,25.781,681.966z"/>
	<path fill-rule="evenodd" clip-rule="evenodd" fill="#F68B29" d="M181.628,653.344c-8.809-10.793-17.183-21.899-24.597-33.713
		c-19.43-30.959-32.771-64.328-40.042-100.163c-5.13-25.285-6.981-50.827-5.412-76.511c4.127-67.539,27.948-127.324,72.196-178.628
		c36.547-42.376,81.721-71.864,135.209-88.474c16.794-5.215,33.959-8.676,51.433-10.733c15.583-1.835,31.209-2.355,46.846-1.617
		c36.069,1.701,70.682,9.791,103.702,24.485c36.666,16.316,68.67,39.21,95.893,68.664c36.791,39.807,60.981,86.267,72.624,139.219
		c3.776,17.175,5.947,34.56,6.592,52.148c0.297,8.09,0.497,16.165-0.073,24.244c-0.07,1.004,0.342,2.18-0.781,2.917
		c-2.657,2.743-5.813,4.852-8.955,6.969c-13.788,9.286-28.373,17.215-42.959,25.138c-1.392,0.756-2.911,1.315-4.423,1.805
		c-8.027,2.598-13.61-0.491-15.692-8.63c-0.079-0.308-0.096-0.633-0.171-0.941c-0.978-3.989-0.954-8.053-0.468-12.063
		c0.786-6.478,0.792-12.962,0.455-19.44c-0.315-6.084-1.607-12.003-4.077-17.617c-5.144-11.695-15.751-18.098-27.532-17.465
		c-5.697,0.307-10.775,2.314-15.519,5.292c-9.237,5.798-16.697,13.49-23.128,22.199c-6.898,9.343-12.65,19.434-18.766,29.285
		c-1.905,3.069-3.522,6.32-5.759,9.183c-0.997-1.338-0.548-2.886-0.55-4.332c-0.042-55.769-0.054-111.538-0.083-167.307
		c-0.001-1.698-0.058-3.407-0.251-5.093c-1.103-9.631-8.48-16.593-18.298-17.325c-8.7-0.649-17.035,5.469-19.585,14.286
		c-0.756,2.614-0.686,5.262-0.686,7.916c-0.006,78.651-0.005,157.303-0.009,235.954c0,1.276-0.051,2.551-0.078,3.827
		c-0.761,0.876-1.526,1.749-2.281,2.63c-2.5,2.919-5.351,5.388-8.906,6.952c-1.209-1.385-0.649-3.06-0.651-4.589
		c-0.062-72.163-0.086-144.326-0.116-216.489c-0.005-10.324,0.086-20.649-0.049-30.972c-0.16-12.276-10.568-21.021-22.671-19.23
		c-9.356,1.385-16.173,9.75-16.177,20.021c-0.02,55.772-0.012,111.544-0.001,167.316c0,1.149-0.244,2.356,0.494,3.408
		c-0.428,0.113-0.848,0.061-1.193-0.2c-3.464-2.612-7.416-4.286-11.374-5.951c0.563-0.991,0.362-2.079,0.363-3.129
		c0.036-53.749,0.06-107.499,0.098-161.248c0.001-1.606-0.167-3.179-0.476-4.751c-1.73-8.828-8.9-15.089-18.082-15.765
		c-8.108-0.596-16.139,4.799-19.094,12.771c-1.057,2.85-1.265,5.78-1.264,8.783c0.02,57.049,0.015,114.098,0.012,171.147
		c0,1.489-0.031,2.979-0.048,4.468c-4.267,2.689-7.938,6.169-12.05,9.063c-1.1-1.183-0.57-2.637-0.571-3.954
		c-0.023-59.589-0.014-119.178-0.009-178.766c0.001-1.49,0.021-2.98-0.02-4.469c-0.253-9.47-7.311-17.531-16.426-18.782
		c-9.807-1.346-18.546,4.197-21.461,13.604c-0.829,2.675-0.979,5.419-0.979,8.196c0.01,72.465,0.008,144.929,0.006,217.392
		c0,1.384-0.029,2.767-0.045,4.149c-13.122,10.987-26.146,22.092-39.52,32.778c-20.356,16.268-41.023,32.124-62.951,46.237
		C216.981,637.912,200.658,648.352,181.628,653.344z M536.244,252.477c-1.119-0.541-2.201-0.329-3.249-0.329
		c-67.057-0.011-134.113-0.011-201.17-0.01c-0.744,0-1.489,0.021-2.234,0.019c-0.989-0.005-1.297,0.522-1.136,1.426
		c0.148,0.837,0.286,1.677,0.455,2.51c1.39,6.876,2.783,13.752,4.182,20.626c1.059,5.209,2.169,10.407,3.161,15.628
		c0.292,1.532,0.918,2.282,2.541,2.07c0.732-0.095,1.488-0.016,2.232-0.016c24.481,0,48.962,0,73.443,0
		c36.509,0,73.017,0.001,109.525-0.001c3.268,0,3.265-0.009,3.941-3.042c2.266-10.167,4.584-20.323,6.766-30.508
		C535.297,258.074,536.281,255.345,536.244,252.477z M431.712,241.947c18.944,0,37.888,0.001,56.831,0
		c15.112,0,30.225,0.006,45.337-0.005c2.763-0.002,2.787-0.034,2.795-2.813c0.016-6.278,0.017-12.558,0.001-18.837
		c-0.011-4.4,0.407-3.886-3.959-3.887c-67.153-0.008-134.308-0.005-201.462-0.005c-0.532,0-1.064-0.014-1.596,0.003
		c-2.238,0.071-2.291,0.074-2.301,2.339c-0.029,6.492-0.024,12.983-0.006,19.476c0.012,4.114-0.45,3.724,3.788,3.725
		C364.665,241.951,398.188,241.947,431.712,241.947z"/>
	<path fill-rule="evenodd" clip-rule="evenodd" fill="#0A4089" d="M694.598,507c1.264,0.163,2.524,0.434,3.792,0.471
		c17.55,0.526,35.065,1.819,52.622,2.268c11.485,0.294,22.956,1.131,34.434,1.731c0.736,0.038,1.471,0.129,2.192,0.424
		c-5.864,0.284-11.729,0.571-17.593,0.854c-11.587,0.56-23.199,0.803-34.753,1.758c-12.982,1.074-25.678,3.84-37.547,9.424
		c-16.782,7.897-30.562,19.518-41.716,34.32c-3.66,4.858-6.498,10.233-9.944,15.223c-5.697,8.248-11.752,16.192-19.016,23.148
		c-4.167,3.99-8.622,7.604-13.774,10.266c-3.734,1.928-7.549,3.227-11.93,2.479c-6.316-1.076-10.599-4.811-12.107-11.101
		c-0.88-3.667-0.877-7.36-0.376-11.094c0.769-5.721,0.945-11.449-0.322-17.137c-0.797-3.58-2.194-6.885-4.608-9.696
		c-4.346-5.061-10.492-6.596-16.735-4.212c-3.849,1.471-7.063,3.903-10.026,6.684c-5.869,5.504-10.616,11.897-14.654,18.827
		c-12.275,21.072-25.382,41.595-40.302,60.912c-11.018,14.265-22.862,27.775-36.62,39.499c-8.538,7.276-17.639,13.709-27.991,18.202
		c-5.299,2.3-10.79,3.84-16.553,4.496c-11.841,1.35-23.17-5.011-27.946-15.942c-3.629-8.306-4.099-17.078-3.596-25.982
		c0.579-10.267,3.274-20.115,5.709-30.029c2.77-11.276,4.921-22.661,4.812-34.349c-0.037-3.955-0.505-7.86-1.866-11.601
		c-2.013-5.532-5.484-8.438-12.746-7.046c-4.481,0.859-8.315,3.253-11.935,5.853c-4.754,3.416-9.03,7.425-13.348,11.387
		c-28.619,26.262-58.72,50.529-93.358,68.6c-14.569,7.601-29.66,13.863-45.782,17.374c-11.098,2.417-22.282,3.397-33.602,1.787
		c-0.839-0.119-1.698-0.097-2.549-0.122c-28.832-0.9-57.67-1.378-86.517-1.552c-20.435-0.123-40.868-0.577-61.302-0.893
		c-0.953-0.015-1.909-0.081-2.855-0.189c-0.263-0.03-0.518-0.222-0.512-0.648c0.008-0.479,0.366-0.538,0.608-0.566
		c0.844-0.099,1.696-0.125,2.546-0.153c25.533-0.838,51.076-1.176,76.622-1.334c15.646-0.098,31.295-0.129,46.938-0.421
		c13.306-0.248,26.566-1.214,39.645-3.897c0.52-0.107,1.056-0.156,1.455-0.564c1.668,0.228,3.13-0.536,4.619-1.043
		c17.654-6.011,33.907-14.706,49.053-25.555c37.454-26.827,71.044-57.923,101.934-92.021c9.379-10.354,19.401-20.026,30.914-28.035
		c5.434-3.78,11.13-7.093,17.482-9.1c7.95-2.512,15.563-0.154,20.838,6.358c2.798,3.454,4.551,7.429,5.707,11.669
		c3.104,11.384,3.026,22.949,1.552,34.521c-1.051,8.246-2.046,16.476-1.521,24.8c0.391,6.207,1.576,12.233,4.745,17.708
		c2.531,4.371,6.113,7.349,11.22,8.129c2.852,0.436,5.723,0.402,8.569-0.209c7.15-1.533,13.199-5.249,18.892-9.618
		c9.265-7.108,17.096-15.658,24.415-24.688c15.795-19.489,29.148-40.602,41.203-62.554c4.562-8.308,9.247-16.525,14.874-24.169
		c5.386-7.316,11.343-14.1,18.661-19.565c4.383-3.273,9.097-5.902,14.553-6.965c6.289-1.226,12.245,1.226,15.805,6.564
		c1.546,2.319,2.616,4.861,3.392,7.534c1.977,6.813,2.494,13.808,2.374,20.845c-0.141,8.201-1.208,16.31-2.663,24.388
		c-0.928,5.152-1.063,10.399,0.951,15.414c2.079,5.179,5.783,7.056,11.231,5.776c3.475-0.815,6.516-2.516,9.373-4.626
		c13.607-10.053,27.162-20.181,40.89-30.068C677.975,514.602,685.651,509.584,694.598,507z"/>
	<path fill-rule="evenodd" clip-rule="evenodd" fill="#D7D9DD" d="M694.598,507c-8.946,2.584-16.623,7.602-24.045,12.947
		c-13.728,9.888-27.282,20.016-40.89,30.068c-2.857,2.11-5.898,3.811-9.373,4.626c-5.448,1.279-9.152-0.598-11.231-5.776
		c-2.014-5.015-1.879-10.262-0.951-15.414c1.455-8.078,2.522-16.187,2.663-24.388c0.12-7.037-0.397-14.031-2.374-20.845
		c-0.775-2.673-1.846-5.215-3.392-7.534c-3.56-5.339-9.516-7.79-15.805-6.564c-5.456,1.063-10.17,3.691-14.553,6.965
		c-7.318,5.466-13.275,12.249-18.661,19.565c-5.627,7.644-10.313,15.861-14.874,24.169c-12.055,21.952-25.408,43.064-41.203,62.554
		c-7.319,9.03-15.15,17.58-24.415,24.688c-5.692,4.369-11.741,8.085-18.892,9.618c-2.847,0.611-5.718,0.645-8.569,0.209
		c-5.106-0.78-8.688-3.758-11.22-8.129c-3.169-5.475-4.354-11.501-4.745-17.708c-0.525-8.324,0.47-16.554,1.521-24.8
		c1.475-11.572,1.552-23.138-1.552-34.521c-1.156-4.24-2.909-8.215-5.707-11.669c-5.275-6.513-12.888-8.87-20.838-6.358
		c-6.353,2.007-12.049,5.319-17.482,9.1c-11.513,8.009-21.535,17.681-30.914,28.035c-30.89,34.099-64.479,65.194-101.934,92.021
		c-15.146,10.849-31.398,19.544-49.053,25.555c-1.489,0.507-2.951,1.271-4.619,1.043c-2.341-2.258-4.751-4.451-7.01-6.788
		c-4.46-4.614-8.93-9.226-12.853-14.325c19.03-4.992,35.354-15.432,51.616-25.9c21.928-14.113,42.595-29.97,62.951-46.237
		c13.373-10.687,26.397-21.791,39.52-32.778c0.846,0.333,1.409-0.175,1.97-0.67c1.669-1.474,3.448-2.843,4.979-4.448
		c9.96-10.443,20.282-20.504,31.275-29.863c0.769-0.655,1.371-1.313,1.279-2.389c4.112-2.894,7.783-6.373,12.05-9.062
		c1.25,0.39,1.958-0.581,2.796-1.156c5.253-3.599,10.652-6.924,16.496-9.51c6.232-2.757,12.591-3.552,19.198-1.612
		c3.958,1.665,7.91,3.339,11.374,5.951c0.346,0.261,0.766,0.313,1.193,0.199c-0.001,0,0.054-0.007,0.054-0.007
		c-0.147,0.612,0.104,0.921,0.724,0.952l-0.042-0.042c-0.057,0.514,0.167,0.741,0.684,0.671l-0.037-0.037
		c-0.067,0.518,0.158,0.743,0.676,0.677l-0.037-0.038c-0.065,0.516,0.133,0.767,0.675,0.677l-0.036-0.036
		c-0.101,0.543,0.074,0.817,0.667,0.685l-0.033-0.041c-0.32,0.731-0.008,1.12,0.702,1.293l-0.029-0.038
		c0.017,0.839,0.202,1.515,1.282,1.328l-0.026-0.031c-0.549,1.212,0.416,2.01,0.876,2.888c2.513,4.794,3.82,9.943,4.14,15.28
		c0.611,10.188,0.949,20.392,1.47,30.586c0.262,5.139,1.21,10.14,3.811,14.675c0.415,0.724,0.511,1.967,1.869,1.756l-0.022-0.028
		c0.391,3.105,2.766,4.438,5.15,5.762l-0.045-0.031c0.572,0.995,1.446,1.416,2.575,1.352l-0.056-0.03
		c0.209,0.692,0.772,0.684,1.337,0.675l-0.069-0.03c0.159,0.713,0.905,0.659,1.332,1.021c0.696,0.108,1.394,0.217,2.089,0.325
		c2.11,0.906,4.341,1.037,6.594,1.022c0.997-0.104,2.208,0.682,2.9-0.695c3.555-1.566,6.405-4.035,8.905-6.954
		c0.755-0.881,1.521-1.754,2.282-2.629c1.939,0.203,2.058-1.575,2.682-2.632c11.821-20.053,23.574-40.146,35.403-60.194
		c0.962-1.63,1.491-3.252,1.453-5.102c2.236-2.862,3.854-6.113,5.759-9.183c6.115-9.852,11.867-19.942,18.766-29.285
		c6.431-8.709,13.891-16.401,23.128-22.199c4.743-2.978,9.821-4.985,15.519-5.292c11.781-0.633,22.389,5.77,27.532,17.465
		c2.47,5.614,3.762,11.533,4.077,17.617c0.337,6.479,0.331,12.963-0.455,19.44c-0.486,4.011-0.51,8.074,0.468,12.063
		c0.075,0.309,0.092,0.634,0.171,0.941c2.082,8.139,7.665,11.228,15.692,8.63c1.512-0.489,3.031-1.049,4.423-1.805
		c14.586-7.923,29.171-15.852,42.959-25.138c3.143-2.117,6.298-4.226,8.955-6.969c1.268,2.171,1.347,4.538,1.311,6.978
		c-0.116,7.901-0.576,15.769-1.883,23.572C694.575,506.146,694.61,506.577,694.598,507z"/>
	<path fill-rule="evenodd" clip-rule="evenodd" fill="#0E448B" d="M99.245,626.208c9.65-2.865,19.3-5.732,28.951-8.594
		c2.819-0.836,2.821-0.83,4.385,1.786c0.599,1.001,1.099,2.08,1.817,2.986c1.2,1.514,0.737,2.495-0.543,3.742
		c-5.931,5.773-11.759,11.652-17.615,17.502c-0.821,0.821-1.593,1.691-2.388,2.539c-0.854,0.432-1.495,1.08-1.942,1.924
		c-0.273,0.116-0.607,0.286-0.354,0.604c0.229,0.284,0.532,0.031,0.767-0.151c0.875-0.384,1.792-0.699,2.386-1.523
		c7.233-4.257,14.467-8.515,21.7-12.771c0.642-0.378,1.335-0.691,1.91-1.152c1.353-1.083,2.194-0.763,2.904,0.758
		c0.848,1.817,2.96,3.471,2.698,5.246c-0.278,1.898-2.998,2.363-4.682,3.377c-10.473,6.307-20.988,12.543-31.496,18.791
		c-2.188,1.302-2.213,1.288-3.547-0.927c-1.535-2.55-2.96-5.172-4.604-7.649c-0.937-1.411-0.809-2.297,0.389-3.496
		c5.789-5.794,11.487-11.68,17.206-17.543c0.738-0.757,1.41-1.578,2.112-2.37c0.145-0.206,0.452-0.544,0.408-0.597
		c-0.287-0.354-0.643-0.203-0.972-0.004c-8.381,2.373-16.764,4.741-25.142,7.124c-3.432,0.976-3.431,0.991-5.329-2.208
		c-1.674-2.821-3.343-5.645-4.959-8.375c0.54-0.873,1.263-1.132,1.892-1.506c11.51-6.858,23.021-13.715,34.537-20.563
		c2.32-1.379,2.391-1.396,3.753,1.022c0.911,1.619,2.896,3.197,2.318,4.94c-0.504,1.521-2.836,2.029-4.374,2.956
		c-7.376,4.446-14.77,8.862-22.156,13.288c-0.808,0.192-1.466,0.616-2.004,1.315C98.036,626.862,98.647,626.566,99.245,626.208z"/>
	<path fill-rule="evenodd" clip-rule="evenodd" fill="#0E448B" d="M72.823,508.445c3.645-7.678,10.726-11.829,16.522-17.648
		c1.234,2.251,0.925,4.553,1.589,6.587c0.938,2.88,0.122,4.882-2.242,6.851c-3.506,2.92-6.597,6.331-9.949,9.441
		c-2.9,2.69-3.534,5.864-2.611,9.59c0.297,1.198,0.691,1.527,1.919,1.305c4.913-0.892,9.845-1.685,14.771-2.508
		c2.2-0.367,2.207-0.361,2.592,1.88c0.252,1.466,0.503,2.933,0.72,4.404c0.354,2.411,0.348,2.437-1.975,2.837
		c-6.179,1.063-12.359,2.109-18.541,3.152c-7.229,1.22-14.465,2.403-21.687,3.668c-1.186,0.207-2.094,0.359-2.314-1.176
		c-1.177-8.2-3.335-16.266-3.666-24.575c-0.364-9.159,8.423-15.321,17.021-12.079c2.929,1.104,4.948,3.205,6.369,5.959
		C71.722,506.872,71.846,507.782,72.823,508.445z M55.811,515.235c0.562,3.379,1.244,7.46,1.917,11.545
		c0.117,0.712,0.385,1.193,1.23,1.044c3.032-0.534,6.064-1.068,9.1-1.582c0.756-0.128,1.166-0.495,1.013-1.28
		c-0.818-4.164-1.201-8.422-2.493-12.481c-0.92-2.887-3.142-4.062-6.258-3.568C57.418,509.372,55.783,511.4,55.811,515.235z"/>
	<path fill-rule="evenodd" clip-rule="evenodd" fill="#0E448B" d="M169.511,208.696c0.229,1.118,1.161,1.736,1.844,2.511
		c4.713,5.347,9.472,10.651,14.185,15.996c2.646,3,2.655,2.258-0.403,5.02c-1.168,1.055-2.244,2.25-3.952,3.135
		c-0.409-0.529-0.771-1.059-1.193-1.534c-8.968-10.103-17.941-20.198-26.915-30.295c-1.752-1.972-1.717-1.481,0.173-3.698
		c3.111-3.646,6.324-4.126,10.84-2.462c7.562,2.786,15.401,4.815,23.13,7.144c0.966,0.291,1.92,0.892,3.491,0.192
		c-3.098-3.693-6.245-7.085-9.297-10.554c-3.088-3.511-6.209-6.993-9.409-10.595c1.86-2.164,4.001-3.846,6.311-5.753
		c10.001,11.252,19.94,22.437,30.013,33.77c-2.061,1.854-4.006,3.494-5.817,5.272c-1.101,1.081-2.123,0.543-3.227,0.213
		c-8.954-2.678-17.907-5.362-26.872-8.008c-0.941-0.278-1.879-1.061-2.949-0.318c0.199-0.171,0.218-0.343,0.02-0.413
		c-0.102-0.036-0.249,0.061-0.376,0.097C169.24,208.509,169.376,208.603,169.511,208.696z M191.045,205.152
		c-0.065-0.072-0.127-0.141-0.189-0.209c-0.067,0.063-0.135,0.125-0.202,0.188c0.1,0.064,0.199,0.129,0.299,0.193
		C190.986,205.261,191.021,205.198,191.045,205.152z"/>
	<path fill-rule="evenodd" clip-rule="evenodd" fill="#0D438B" d="M378.644,124.768c7.677,4.319,11.385,11.718,16.936,18.055
		c-3.586,0.903-6.804,0.714-9.919,1.249c-1.173,0.201-1.653-0.795-2.249-1.506c-2.731-3.263-5.427-6.556-8.166-9.812
		c-1.026-1.22-2.098-2.408-3.216-3.543c-2.456-2.493-5.497-2.44-8.64-1.895c-1.043,0.182-1.003,0.913-0.93,1.684
		c0.252,2.646,0.498,5.294,0.762,7.938c0.243,2.434,0.376,4.889,0.804,7.29c0.299,1.676-0.405,2.062-1.808,2.152
		c-1.697,0.11-3.402,0.222-5.079,0.487c-1.652,0.263-2.27-0.27-2.382-1.978c-0.236-3.604-0.701-7.194-1.054-10.792
		c-0.962-9.843-1.928-19.685-2.862-29.529c-0.229-2.424-0.186-2.517,2.372-2.775c6.982-0.705,13.971-1.353,20.963-1.963
		c1.261-0.109,2.553,0.007,3.82,0.123c5.538,0.508,9.438,4.05,10.514,9.496c1.171,5.933-1.003,10.953-5.931,13.574
		C381.458,123.621,380.253,124.062,378.644,124.768z M363.9,120.043c3.565-0.471,7.139-0.896,10.695-1.428
		c2.392-0.357,4.106-1.58,4.658-4.108c0.834-3.815-1.433-6.93-5.334-6.842c-3.909,0.087-7.808,0.595-11.715,0.853
		c-1.405,0.093-1.792,0.746-1.633,2.062c0.292,2.416,0.455,4.848,0.735,7.266C361.56,120.03,361.597,120.025,363.9,120.043z"/>
	<path fill-rule="evenodd" clip-rule="evenodd" fill="#0D438B" d="M88.469,357.762c-8.226-2.403-16.378-4.786-24.53-7.166
		c-0.306-0.09-0.624-0.139-0.928-0.232c-2.249-0.701-2.312-0.723-1.587-3.045c0.589-1.888,0.406-4.655,2.078-5.38
		c1.375-0.596,3.6,0.7,5.427,1.228c11.634,3.36,23.264,6.735,34.892,10.118c2.77,0.806,2.805,0.841,1.94,3.668
		c-0.616,2.013-0.519,4.584-2.113,5.862c-1.452,1.165-3.755,1.283-5.694,1.824c-7.674,2.141-15.354,4.262-23.027,6.402
		c-0.968,0.271-1.913,0.616-2.866,1.485c0.947,0.317,1.886,0.667,2.845,0.948c7.237,2.119,14.482,4.214,21.719,6.34
		c2.285,0.672,2.279,0.705,1.626,3.063c-0.313,1.126-0.625,2.252-0.967,3.37c-0.726,2.379-0.744,2.416-3.049,1.759
		c-4.087-1.165-8.154-2.392-12.234-3.579c-8.874-2.581-17.745-5.173-26.63-7.714c-2.127-0.607-2.521-0.9-1.661-3.054
		c0.78-1.957,0.631-4.48,2.058-5.93c1.431-1.454,3.915-1.396,5.948-1.959c8.291-2.3,16.59-4.572,24.885-6.86
		C87.189,358.747,87.895,358.813,88.469,357.762z"/>
	<path fill-rule="evenodd" clip-rule="evenodd" fill="#0E448B" d="M565.75,155.99c1.901,1.082,3.633,2.079,5.375,3.056
		c4.172,2.337,8.325,4.708,12.537,6.97c1.378,0.74,1.953,1.391,0.911,2.889c-1.02,1.467-1.813,3.092-2.83,4.864
		c-6.618-3.68-13.096-7.281-19.822-11.021c-1.98,3.543-3.889,6.955-5.771,10.322c0.604,1.123,1.683,1.41,2.582,1.917
		c5.648,3.181,11.315,6.327,16.968,9.499c2.295,1.287,2.286,1.303,1.097,3.507c-2.452,4.544-2.454,4.547-7.025,1.994
		c-7.886-4.403-15.774-8.802-23.651-13.222c-1.936-1.087-1.949-1.141-0.854-3.105c6.627-11.878,13.262-23.75,19.914-35.614
		c1.089-1.943,1.153-1.951,3.125-0.854c8.45,4.702,16.892,9.418,25.326,14.146c1.977,1.108,2.024,1.177,0.933,3.027
		c-0.899,1.522-1.234,3.878-2.913,4.305c-1.471,0.374-2.992-1.289-4.463-2.102c-4.928-2.726-9.861-5.443-14.74-8.255
		c-1.389-0.8-2.194-0.76-2.948,0.782C568.383,151.373,567.083,153.56,565.75,155.99z"/>
	<path fill-rule="evenodd" clip-rule="evenodd" fill="#0E448B" d="M92.027,580.387c3.594-1.31,7.261-2.646,11.099-4.044
		c-2.486-6.899-4.925-13.574-7.296-20.273c-1.367-3.865-2.13-3.205,2.178-4.744c4.254-1.52,3.503-1.992,5.145,2.529
		c3.192,8.789,6.387,17.577,9.559,26.373c0.758,2.102,0.737,2.162-1.328,2.913c-12.882,4.685-25.78,9.323-38.646,14.05
		c-1.443,0.53-2.015,0.311-2.534-1.154c-3.341-9.412-6.758-18.798-10.189-28.178c-0.394-1.075-0.409-1.644,0.834-2.19
		c5.681-2.502,5.656-2.547,7.774,3.304c1.882,5.196,3.827,10.369,5.63,15.591c0.542,1.57,1.198,1.996,2.76,1.295
		c1.74-0.78,3.55-1.455,5.389-1.954c1.719-0.467,1.834-1.329,1.283-2.805c-2.083-5.573-4.099-11.172-6.121-16.769
		c-0.92-2.544-0.9-2.552,1.716-3.525c4.566-1.697,4.57-1.699,6.227,2.869c1.629,4.495,3.228,9.003,4.892,13.484
		C90.795,578.234,90.937,579.46,92.027,580.387z"/>
	<path fill-rule="evenodd" clip-rule="evenodd" fill="#0E448B" d="M327.074,132.448c-4.587,1.325-9.263,2.681-13.941,4.024
		c-1.839,0.528-3.693,1.001-5.525,1.552c-2.03,0.61-2.038,0.641-1.436,2.849c0.671,2.46,1.345,4.921,2.07,7.366
		c0.638,2.149,0.685,2.193,2.868,1.576c6.238-1.761,12.453-3.608,18.698-5.345c4.209-1.171,3.256-1.439,4.356,2.427
		c1.248,4.387,2.03,3.734-2.965,5.147c-8.896,2.518-17.778,5.08-26.672,7.605c-2.319,0.659-2.365,0.64-3.013-1.607
		c-3.735-12.968-7.458-25.939-11.167-38.915c-0.667-2.334-0.638-2.378,1.671-3.039c9.194-2.631,18.395-5.245,27.596-7.851
		c2.402-0.68,2.409-0.656,3.095,1.552c1.578,5.081,1.579,5.085-3.599,6.579c-5.412,1.561-10.83,3.097-16.236,4.679
		c-2.162,0.633-2.174,0.682-1.587,2.851c0.472,1.744,0.99,3.476,1.526,5.2c0.651,2.094,0.682,2.133,2.883,1.509
		c5.623-1.595,11.231-3.241,16.851-4.849c2.692-0.771,2.702-0.752,3.456,1.815c0.39,1.325,0.771,2.653,1.133,3.986
		C327.188,131.751,327.112,131.976,327.074,132.448z"/>
	<path fill-rule="evenodd" clip-rule="evenodd" fill="#0E448B" d="M598.596,190.947c2.179,1.433,4.194,2.803,6.26,4.095
		c0.957,0.598,0.798,1.203,0.481,2.128c-2.147,6.29-0.19,10.702,5.834,13.508c1.618,0.755,3.276,0.941,4.976,0.564
		c3.029-0.671,4.472-3.48,3.311-6.368c-0.722-1.797-1.948-3.287-3.076-4.831c-2.068-2.834-4.273-5.574-5.878-8.721
		c-1.719-3.372-2.232-6.869-0.92-10.484c2.021-5.565,7.792-8.86,13.527-7.494c7.131,1.698,12.357,6.084,15.775,12.457
		c2.173,4.05,1.661,8.226-0.602,12.197c-0.62,1.089-1.244,1.644-2.465,0.654c-1.569-1.271-3.223-2.441-4.87-3.612
		c-0.833-0.593-0.997-1.22-0.558-2.167c1.063-2.29,1.054-4.565-0.579-6.604c-2.042-2.551-4.488-4.609-7.867-4.999
		c-2.832-0.325-4.588,2.019-3.655,4.761c0.729,2.142,2.099,3.932,3.433,5.725c2.03,2.731,4.152,5.402,5.766,8.416
		c4.335,8.097,0.343,17.285-8.521,19.658c-2.889,0.773-5.701,0.47-8.428-0.655c-5.036-2.08-9.209-5.328-12.396-9.726
		C594.118,203.891,594.267,197.636,598.596,190.947z"/>
	<path fill-rule="evenodd" clip-rule="evenodd" fill="#0E448B" d="M431.368,145.538c-3.075,0.085-6.226-0.37-9.263-1.437
		c-6.092-2.139-10.188-7.714-10.408-13.991c-0.036-1.031,0.208-1.633,1.347-1.647c2.128-0.026,4.255-0.072,6.382-0.14
		c0.78-0.024,1.161,0.337,1.288,1.071c0.055,0.313,0.165,0.616,0.254,0.922c1.828,6.268,7.951,9.244,14.063,6.851
		c1.329-0.521,2.426-1.329,3.213-2.512c1.53-2.298,1.055-4.811-1.217-6.412c-1.407-0.992-3.048-1.476-4.648-2.053
		c-3.794-1.368-7.729-2.396-11.233-4.479c-3.688-2.193-6.099-5.295-6.396-9.699c-0.444-6.6,3.684-11.788,10.59-12.999
		c4.88-0.854,9.785-0.547,14.455,1.274c5.243,2.045,8.109,5.972,8.678,11.581c0.117,1.16-0.165,1.848-1.506,1.766
		c-1.273-0.077-2.56-0.162-3.827-0.067c-2.415,0.182-4.395,0.006-4.645-3.136c-0.092-1.154-1.024-2.128-2.085-2.7
		c-3.485-1.882-7.151-2.081-10.743-0.511c-2.629,1.149-2.879,4.167-0.622,5.951c0.9,0.713,1.987,1.242,3.063,1.67
		c2.17,0.862,4.381,1.624,6.593,2.378c2.217,0.756,4.409,1.567,6.475,2.675c5.354,2.87,7.688,7.382,7.002,13.464
		c-0.624,5.546-4.31,9.859-9.711,11.432C436.187,145.453,433.863,145.58,431.368,145.538z"/>
	<path fill-rule="evenodd" clip-rule="evenodd" fill="#0D438B" d="M89.833,456.58c0.022,2.572-0.221,5.107-0.941,7.58
		c-1.731,5.94-6.802,10.222-12.836,10.972c-1.295,0.161-2.057-0.062-2.122-1.509c-0.054-1.168-0.241-2.333-0.251-3.5
		c-0.009-1.152-0.634-2.413,0.039-3.427c0.6-0.903,1.917-0.718,2.882-1.136c2.498-1.084,4.252-2.794,4.978-5.445
		c0.718-2.623,0.693-5.249-0.134-7.855c-0.504-1.586-1.45-2.847-2.857-3.713c-2.498-1.537-5.095-0.893-6.55,1.662
		c-1.117,1.961-1.54,4.182-2.119,6.334c-0.912,3.387-1.714,6.807-3.298,9.971c-1.599,3.19-4.016,5.502-7.445,6.57
		c-5.554,1.729-11.532-0.612-14.044-5.923c-3.277-6.931-3.128-14.075,0.292-20.929c1.927-3.863,5.43-5.854,9.738-6.365
		c1.166-0.138,1.82,0.181,1.819,1.491c-0.002,2.021,0.036,4.046,0.148,6.064c0.059,1.054-0.387,1.529-1.348,1.787
		c-2.434,0.654-4.239,2.074-4.784,4.62c-0.681,3.179-0.796,6.387,1.035,9.268c1.537,2.42,4.387,2.317,6.007-0.184
		c1.167-1.802,1.69-3.891,2.235-5.947c0.953-3.595,1.751-7.244,3.32-10.639c3.27-7.074,11.303-9.832,18.294-6.322
		c4.979,2.501,6.988,6.912,7.691,12.114C89.781,453.591,89.756,455.093,89.833,456.58z"/>
	<path fill-rule="evenodd" clip-rule="evenodd" fill="#0E448B" d="M114.242,244.936c5.598,4.36,10.955,8.553,16.334,12.717
		c2.524,1.953,5.065,3.887,7.642,5.771c2.73,1.996,5.757,2.515,8.65,0.646c3.13-2.021,5.427-4.795,5.445-8.835
		c0.008-1.694-0.729-3.104-1.938-4.231c-1.399-1.306-2.819-2.6-4.321-3.782c-5.936-4.676-11.907-9.304-17.861-13.954
		c-0.914-0.714-1.806-1.457-2.947-2.38c1.858-2.407,3.641-4.717,5.464-7.078c0.563,0.333,0.946,0.507,1.27,0.76
		c6.879,5.368,13.771,10.72,20.61,16.139c1.746,1.384,3.409,2.9,4.955,4.505c3.857,4.003,4.749,8.773,2.794,13.872
		c-2.025,5.279-5.487,9.653-10.111,12.88c-4.556,3.177-9.504,3.514-14.426,0.644c-1.926-1.123-3.828-2.32-5.597-3.673
		c-6.678-5.106-13.269-10.326-19.962-15.412c-1.336-1.016-1.528-1.719-0.396-3C111.321,248.855,112.613,247.027,114.242,244.936z"/>
	<path fill-rule="evenodd" clip-rule="evenodd" fill="#0E448B" d="M713.973,353.801c0.937,2.229,1.751,4.297,2.673,6.314
		c0.46,1.005,0.087,1.448-0.694,2.079c-2.306,1.86-2.896,3.574-2.059,5.773c0.882,2.317,2.694,3.527,5.122,3.704
		c2.656,0.192,5.308,0.117,7.96-0.829c-0.22-0.301-0.353-0.594-0.577-0.772c-6.102-4.869-6.731-12.777-1.225-18.402
		c4.427-4.522,10.045-6.107,16.131-4.689c10.4,2.423,14.209,15.674,7.009,23.742c-1.654,1.853-3.659,3.246-5.854,4.365
		c-5.853,2.981-12.074,4.76-18.605,5.278c-8.308,0.66-14.816-3.598-17.096-10.91C704.755,363.032,706.712,356.938,713.973,353.801z
		 M737.925,354.928c-2.217,0.168-5.072,0.901-7.471,2.828c-1.926,1.548-2.557,3.652-1.872,5.997
		c0.655,2.246,2.355,3.642,4.616,3.842c3.884,0.345,7.368-0.783,9.939-3.879c1.457-1.754,1.864-3.811,0.826-5.943
		C742.912,355.613,741.04,354.826,737.925,354.928z"/>
	<path fill-rule="evenodd" clip-rule="evenodd" fill="#0D438B" d="M726.164,401.643c0.859,1.484,0.922,3.227,1.431,4.828
		c0.284,0.895,0.588,1.91,0.422,2.783c-0.162,0.854-1.389,0.805-2.068,1.309c-2.346,1.739-2.696,4.978-0.705,7.301
		c1.156,1.351,2.668,2.09,4.422,2.301c2.206,0.266,4.415,0.632,6.599,0.146c0.164-0.378,0.133-0.623-0.111-0.895
		c-5.492-6.095-4.561-14.432,2.301-18.936c4.817-3.163,10.181-3.76,15.573-1.785c5.131,1.878,7.973,5.898,8.771,11.238
		c0.839,5.62-1.09,10.259-5.546,13.784c-2.282,1.806-4.959,2.838-7.742,3.628c-5.893,1.672-11.891,2.292-17.986,1.754
		c-9.606-0.849-15.93-8.423-14.769-17.602C717.412,406.288,720.744,402.781,726.164,401.643z M745.421,418.345
		c3.367-0.043,6.046-0.583,8.174-2.606c1.635-1.554,2.46-3.426,1.792-5.741c-0.68-2.352-2.446-3.444-4.669-3.746
		c-3.008-0.409-5.962,0.047-8.617,1.563c-3.313,1.891-3.935,6.094-1.382,8.677C742.156,417.945,743.962,418.425,745.421,418.345z"/>
	<path fill-rule="evenodd" clip-rule="evenodd" fill="#0E448B" d="M266.381,125.418c1.173,10.729,2.285,20.875,3.39,31.021
		c0.541,4.969,1.002,9.948,1.642,14.904c0.181,1.397-0.103,2.181-1.397,2.745c-1.948,0.849-3.864,1.78-5.746,2.767
		c-0.964,0.505-1.679,0.58-2.532-0.264c-10.897-10.771-21.823-21.513-32.737-32.267c-0.066-0.065-0.066-0.198-0.194-0.618
		c2.464-1.221,4.994-2.451,7.5-3.729c0.825-0.421,1.396-0.162,1.965,0.438c0.731,0.772,1.5,1.51,2.249,2.266
		c6.299,6.343,12.59,12.693,18.901,19.024c0.73,0.732,1.332,1.645,2.703,2.193c-0.513-4.069-0.973-7.908-1.486-11.739
		c-0.919-6.85-1.847-13.697-2.829-20.538c-0.19-1.327,0.013-2.19,1.373-2.773C261.501,127.852,263.749,126.684,266.381,125.418z"/>
	<path fill-rule="evenodd" clip-rule="evenodd" fill="#0D438B" d="M728.575,462.204c0,1.44,0.004,2.467-0.001,3.493
		c-0.021,3.935-0.076,7.87-0.052,11.805c0.008,1.216-0.428,1.626-1.658,1.704c-6.501,0.417-6.485,0.45-6.405-5.9
		c0.093-7.443,0.146-14.888,0.242-22.331c0.03-2.26,0.222-2.406,2.368-1.882c3.688,0.901,6.887,2.735,9.739,5.22
		c3.054,2.661,5.775,5.648,8.562,8.576c1.686,1.77,3.39,3.531,5.198,5.171c1.955,1.772,4.271,2.758,6.987,2.552
		c2.813-0.212,4.583-1.756,5.058-4.421c0.579-3.249-0.633-5.689-3.321-6.834c-1.052-0.447-2.628-0.061-3.141-1.18
		c-0.566-1.234,0.006-2.713,0.077-4.085c0.027-0.528,0.148-1.052,0.229-1.577c0.415-2.686,0.419-2.688,2.916-2.111
		c6.342,1.467,9.908,5.707,10.607,12.692c0.169,1.692,0.116,3.39-0.188,5.083c-1.643,9.145-9.45,13.529-18.137,10.144
		c-3.124-1.218-5.774-3.169-8.095-5.549c-2.597-2.665-5.105-5.416-7.668-8.115C731.046,463.765,730.174,462.88,728.575,462.204z"/>
	<path fill-rule="evenodd" clip-rule="evenodd" fill="#0E448B" d="M540.201,132.471c-3.104-1.085-6.19-2.173-9.284-3.241
		c-3.548-1.225-2.956-1.6-4.297,2.14c-3.479,9.704-6.901,19.429-10.348,29.144c-0.178,0.501-0.41,0.986-0.544,1.498
		c-0.31,1.18-0.914,1.526-2.107,1.042c-1.673-0.678-3.381-1.289-5.113-1.795c-1.556-0.453-1.957-1.11-1.342-2.752
		c2.199-5.871,4.229-11.805,6.326-17.715c1.6-4.507,3.214-9.009,4.798-13.521c0.769-2.19,0.75-2.216-1.527-3.049
		c-2.795-1.021-5.584-2.066-8.41-2.994c-1.381-0.452-1.813-1.005-1.32-2.533c1.785-5.537,1.722-5.551,7.139-3.625
		c8.813,3.133,17.631,6.249,26.438,9.393c2.328,0.831,2.354,0.879,1.563,3.11C541.608,129.156,541.251,130.833,540.201,132.471z"/>
	<path fill-rule="evenodd" clip-rule="evenodd" fill="#0E448B" d="M709.534,303.609c0.833-0.439,1.425-0.687,1.947-1.038
		c3-2.021,5.57-2.31,8.637,0.456c2.909,2.624,6.712,4.091,10.833,4.028c1.159-0.018,1.64,0.563,2.133,1.503
		c2.507,4.773,2.535,4.758-2.216,6.978c-11.257,5.259-22.507,10.535-33.777,15.766c-3.418,1.586-2.688,1.911-4.449-1.711
		c-0.512-1.051-0.923-2.154-1.494-3.169c-0.695-1.235-0.369-1.854,0.904-2.421c3.977-1.771,7.903-3.655,11.847-5.501
		c5.095-2.384,10.187-4.771,15.824-7.412C715.911,308.949,712.397,307.018,709.534,303.609z"/>
	<path fill-rule="evenodd" clip-rule="evenodd" fill="#0E448B" d="M485.555,107.363c-1.466,6.823-2.876,13.354-4.271,19.889
		c-1.551,7.271-3.08,14.548-4.636,21.818c-0.549,2.561-0.575,2.568-3.102,2.075c-1.355-0.265-2.704-0.563-4.047-0.883
		c-2.367-0.563-2.379-0.577-1.901-2.846c1.137-5.406,2.279-10.81,3.438-16.211c1.669-7.789,3.349-15.576,5.035-23.362
		c0.516-2.383,0.538-2.413,2.865-1.949C481.012,106.308,483.068,106.808,485.555,107.363z"/>
	<path fill-rule="evenodd" clip-rule="evenodd" fill="#0E448B" d="M201.637,161.296c0.387-0.41,0.568-0.694,0.827-0.861
		c2.133-1.38,4.279-2.737,6.422-4.102c2.137,1.542,3.091,3.979,4.492,6.058c6.363,9.434,12.628,18.936,18.924,28.416
		c0.586,0.881,1.146,1.778,1.799,2.796c-2.297,1.99-4.825,3.471-7.559,5.14C218.19,186.185,209.905,173.728,201.637,161.296z"/>
	<path fill-rule="evenodd" clip-rule="evenodd" fill="#0E448B" d="M664.909,208.754c2.098,2.234,4.052,4.318,6.285,6.698
		c-10.969,10.316-21.853,20.554-32.972,31.012c-2.125-2.229-4.137-4.343-6.344-6.66
		C642.931,229.414,653.832,219.167,664.909,208.754z"/>
	<path fill-rule="evenodd" clip-rule="evenodd" fill="#0E448B" d="M90.198,418.367c-5.416-0.754-10.57-1.452-15.719-2.191
		c-8.404-1.207-16.805-2.443-25.207-3.661c-2.487-0.359-2.491-0.351-2.14-2.692c0.094-0.629,0.214-1.255,0.304-1.886
		c0.887-6.176,0.092-4.863,5.406-4.166c12.626,1.659,25.207,3.667,37.826,5.381c2.65,0.36,2.268,0.974,2.041,2.849
		c-0.19,1.58-0.471,3.149-0.668,4.729C91.881,418.014,91.324,418.698,90.198,418.367z"/>
	<path fill-rule="evenodd" clip-rule="evenodd" fill="#14498E" d="M667.021,207.244c2.17-2.038,4.006-3.761,6.012-5.644
		c2.008,2.112,3.868,4.072,5.785,6.089c-1.539,1.979-3.42,3.362-5.035,5.007c-0.726,0.739-1.273,0.408-1.845-0.209
		C670.368,210.794,668.78,209.118,667.021,207.244z"/>
	<path fill-rule="evenodd" clip-rule="evenodd" fill="#14498E" d="M477.776,101.633c0.362-1.766,0.72-3.534,1.086-5.301
		c0.204-0.985,0.699-1.452,1.797-1.184c1.854,0.453,3.727,0.83,5.598,1.212c1.078,0.22,1.369,0.789,1.036,1.832
		c-0.662,2.079-0.059,5.147-1.9,6.089c-1.894,0.968-4.445-0.692-6.741-1.03C477.678,103.107,477.455,102.504,477.776,101.633z"/>
	<path fill-rule="evenodd" clip-rule="evenodd" fill="#14498E" d="M42.612,411.266c-2.048-0.395-4.77,0.156-6.003-1.268
		c-1.141-1.315,0.097-3.797,0.387-5.748c0.342-2.299,0.416-2.312,2.747-2.046c1.471,0.168,2.928,0.445,4.396,0.619
		c0.871,0.103,1.399,0.407,1.244,1.395c-0.297,1.879-0.636,3.754-0.853,5.644C44.388,411.108,43.786,411.51,42.612,411.266z"/>
	<path fill-rule="evenodd" clip-rule="evenodd" fill="#14498E" d="M200.498,158.507c-1.685-1.729-2.733-3.827-4.071-5.711
		c-0.466-0.656-0.276-1.192,0.338-1.607c1.758-1.186,3.523-2.361,5.292-3.53c0.501-0.332,0.982-0.336,1.375,0.193
		c0.126,0.171,0.248,0.344,0.379,0.511c4.225,5.391,4.227,5.393-1.607,9.154C201.678,157.856,201.12,158.147,200.498,158.507z"/>
	<path fill-rule="evenodd" clip-rule="evenodd" fill="#14498E" d="M115.946,238.561c-1.411,1.807-2.608,3.278-3.734,4.804
		c-0.65,0.882-1.228,0.931-2.065,0.23c-1.453-1.215-2.977-2.344-4.744-3.722c1.307-1.685,2.54-3.219,3.707-4.802
		c0.653-0.888,1.246-0.931,2.085-0.234C112.655,236.05,114.181,237.185,115.946,238.561z"/>
	<path fill-rule="evenodd" clip-rule="evenodd" fill="#14498E" d="M118.122,223.619c2.149,1.231,3.869,2.761,5.539,4.178
		c0.197,1.014-0.492,1.468-0.906,2.019c-3.336,4.439-3.306,4.387-7.669,0.817c-1.16-0.949-1.414-1.614-0.368-2.776
		C115.908,226.532,116.958,225.081,118.122,223.619z"/>
	<path fill-rule="evenodd" clip-rule="evenodd" fill="#0A4089" d="M25.781,681.966c0.001-0.293,0.002-0.586,0.003-0.878
		c2.251-0.255,4.502-0.511,6.981,0.03C30.997,682.327,30.813,682.346,25.781,681.966z"/>
	<path fill-rule="evenodd" clip-rule="evenodd" fill="#093F87" d="M468.004,576.079c-0.695-0.108-1.393-0.217-2.086-0.322
		c0.114-1.063-0.714-0.909-1.335-1.024l0.069,0.03c-0.334-0.447-0.781-0.668-1.337-0.675l0.056,0.03
		c-0.722-0.711-1.388-1.528-2.575-1.352l0.045,0.031c-1.396-2.207-3.304-3.958-5.15-5.762l0.022,0.028
		c-0.04-0.308,0.01-0.668-0.135-0.914c-3.212-5.485-4.085-11.509-4.322-17.74c-0.363-9.549-0.813-19.097-1.41-28.633
		c-0.342-5.445-1.695-10.688-4.396-15.495c-0.497-0.884-0.766-2.002-1.901-2.402l0.026,0.031c-0.063-0.795-0.219-1.499-1.282-1.328
		l0.029,0.038c0.467-0.812-0.102-1.061-0.702-1.293l0.033,0.041c0.011-0.455-0.184-0.71-0.667-0.685l0.036,0.036
		c0.024-0.474-0.2-0.699-0.675-0.677l0.037,0.038c0.023-0.474-0.202-0.699-0.676-0.677l0.037,0.037
		c0.023-0.479-0.229-0.678-0.684-0.671l0.042,0.042c-0.018-0.487-0.384-0.71-0.724-0.952c0,0-0.055,0.007-0.054,0.007
		c-0.738-1.051-0.494-2.258-0.494-3.407c-0.011-55.772-0.019-111.544,0.001-167.316c0.004-10.271,6.82-18.636,16.177-20.021
		c12.103-1.791,22.511,6.954,22.671,19.23c0.135,10.322,0.044,20.647,0.049,30.972c0.03,72.163,0.055,144.326,0.116,216.489
		c0.002,1.529-0.558,3.204,0.651,4.589c-0.691,1.379-1.902,0.594-2.888,0.698C472.416,576.763,470.21,576.421,468.004,576.079z"/>
	<path fill-rule="evenodd" clip-rule="evenodd" fill="#094088" d="M528.224,498.896c0.038,1.85-0.491,3.472-1.453,5.102
		c-11.829,20.049-23.582,40.142-35.403,60.194c-0.624,1.057-0.742,2.835-2.682,2.632c0.026-1.277,0.077-2.552,0.077-3.828
		c0.004-78.651,0.003-157.303,0.009-235.954c0-2.654-0.07-5.302,0.686-7.916c2.55-8.817,10.885-14.936,19.585-14.286
		c9.817,0.732,17.195,7.694,18.298,17.325c0.193,1.686,0.25,3.395,0.251,5.093c0.029,55.769,0.041,111.538,0.083,167.307
		C527.676,496.01,527.227,497.558,528.224,498.896z"/>
	<path fill-rule="evenodd" clip-rule="evenodd" fill="#0A4087" d="M375.219,511.058c0.092,1.075-0.511,1.733-1.279,2.389
		c-10.993,9.359-21.315,19.42-31.275,29.863c-1.531,1.605-3.311,2.975-4.979,4.448c-0.561,0.495-1.124,1.003-1.97,0.67
		c0.016-1.383,0.045-2.766,0.045-4.149c0.002-72.463,0.004-144.927-0.006-217.392c-0.001-2.777,0.149-5.521,0.979-8.196
		c2.915-9.406,11.654-14.949,21.461-13.604c9.115,1.251,16.173,9.313,16.426,18.782c0.04,1.488,0.021,2.979,0.02,4.469
		c-0.005,59.588-0.015,119.177,0.009,178.766C374.648,508.421,374.119,509.875,375.219,511.058z"/>
	<path fill-rule="evenodd" clip-rule="evenodd" fill="#093F88" d="M536.244,252.477c0.037,2.868-0.947,5.598-1.542,8.373
		c-2.182,10.185-4.5,20.341-6.766,30.508c-0.677,3.033-0.674,3.042-3.941,3.042c-36.509,0.002-73.017,0.001-109.525,0.001
		c-24.481,0-48.962,0-73.443,0c-0.744,0-1.5-0.079-2.232,0.016c-1.623,0.212-2.249-0.538-2.541-2.07
		c-0.992-5.221-2.103-10.419-3.161-15.628c-1.398-6.874-2.792-13.75-4.182-20.626c-0.169-0.833-0.307-1.673-0.455-2.51
		c-0.161-0.903,0.146-1.431,1.136-1.426c0.745,0.003,1.49-0.019,2.234-0.019c67.057-0.001,134.113-0.001,201.17,0.01
		C534.043,252.147,535.125,251.936,536.244,252.477z"/>
	<path fill-rule="evenodd" clip-rule="evenodd" fill="#0A4087" d="M425.759,489.718c-6.607-1.939-12.966-1.145-19.198,1.612
		c-5.844,2.586-11.243,5.911-16.496,9.51c-0.838,0.575-1.546,1.546-2.796,1.156c0.017-1.49,0.048-2.979,0.048-4.469
		c0.003-57.05,0.008-114.099-0.012-171.147c-0.001-3.003,0.207-5.934,1.264-8.783c2.955-7.973,10.985-13.367,19.094-12.771
		c9.182,0.676,16.352,6.937,18.082,15.765c0.309,1.572,0.477,3.145,0.476,4.751c-0.038,53.749-0.062,107.499-0.098,161.248
		C426.121,487.639,426.322,488.727,425.759,489.718z"/>
	<path fill-rule="evenodd" clip-rule="evenodd" fill="#0A4087" d="M431.712,241.947c-33.523,0-67.047,0.004-100.571-0.004
		c-4.238-0.001-3.776,0.39-3.788-3.725c-0.019-6.492-0.023-12.983,0.006-19.476c0.01-2.265,0.063-2.268,2.301-2.339
		c0.531-0.017,1.063-0.003,1.596-0.003c67.154,0,134.309-0.003,201.462,0.005c4.366,0.001,3.948-0.514,3.959,3.887
		c0.016,6.279,0.015,12.559-0.001,18.837c-0.008,2.778-0.032,2.811-2.795,2.813c-15.112,0.011-30.225,0.005-45.337,0.005
		C469.6,241.948,450.656,241.947,431.712,241.947z"/>
	<path fill-rule="evenodd" clip-rule="evenodd" fill="#F68B29" d="M443.548,501.88c1.136,0.4,1.404,1.519,1.901,2.402
		c2.701,4.808,4.055,10.05,4.396,15.495c0.598,9.536,1.047,19.084,1.41,28.633c0.237,6.231,1.11,12.255,4.322,17.74
		c0.145,0.246,0.095,0.606,0.135,0.914c-1.358,0.211-1.454-1.032-1.869-1.756c-2.601-4.535-3.549-9.536-3.811-14.675
		c-0.521-10.194-0.858-20.397-1.47-30.586c-0.319-5.337-1.627-10.486-4.14-15.28C443.964,503.89,442.999,503.092,443.548,501.88z"/>
	<path fill-rule="evenodd" clip-rule="evenodd" fill="#F68B29" d="M455.69,567.036c1.847,1.804,3.754,3.555,5.15,5.762
		C458.456,571.474,456.081,570.142,455.69,567.036z"/>
	<path fill-rule="evenodd" clip-rule="evenodd" fill="#F68B29" d="M468.004,576.079c2.206,0.342,4.412,0.684,6.605,1.023
		C472.345,577.116,470.114,576.985,468.004,576.079z"/>
	<path fill-rule="evenodd" clip-rule="evenodd" fill="#F68B29" d="M460.796,572.767c1.188-0.177,1.854,0.641,2.575,1.352
		C462.242,574.183,461.368,573.762,460.796,572.767z"/>
	<path fill-rule="evenodd" clip-rule="evenodd" fill="#F68B29" d="M464.583,574.732c0.621,0.115,1.449-0.039,1.335,1.024
		C465.488,575.392,464.742,575.445,464.583,574.732z"/>
	<path fill-rule="evenodd" clip-rule="evenodd" fill="#F68B29" d="M442.292,500.583c1.063-0.171,1.219,0.533,1.282,1.328
		C442.494,502.098,442.309,501.422,442.292,500.583z"/>
	<path fill-rule="evenodd" clip-rule="evenodd" fill="#F68B29" d="M441.619,499.328c0.601,0.232,1.169,0.481,0.702,1.293
		C441.611,500.448,441.299,500.06,441.619,499.328z"/>
	<path fill-rule="evenodd" clip-rule="evenodd" fill="#F68B29" d="M463.315,574.088c0.556,0.007,1.003,0.228,1.337,0.675
		C464.088,574.771,463.524,574.78,463.315,574.088z"/>
	<path fill-rule="evenodd" clip-rule="evenodd" fill="#F68B29" d="M438.38,495.861c0.34,0.242,0.706,0.465,0.724,0.952
		C438.484,496.782,438.232,496.474,438.38,495.861z"/>
	<path fill-rule="evenodd" clip-rule="evenodd" fill="#F68B29" d="M439.062,496.771c0.455-0.007,0.707,0.191,0.684,0.671
		C439.229,497.513,439.005,497.285,439.062,496.771z"/>
	<path fill-rule="evenodd" clip-rule="evenodd" fill="#F68B29" d="M439.708,497.405c0.474-0.022,0.699,0.203,0.676,0.677
		C439.866,498.148,439.641,497.923,439.708,497.405z"/>
	<path fill-rule="evenodd" clip-rule="evenodd" fill="#F68B29" d="M440.985,498.685c0.483-0.025,0.678,0.229,0.667,0.685
		C441.06,499.502,440.885,499.228,440.985,498.685z"/>
	<path fill-rule="evenodd" clip-rule="evenodd" fill="#F68B29" d="M440.347,498.044c0.475-0.022,0.699,0.203,0.675,0.677
		C440.479,498.811,440.281,498.56,440.347,498.044z"/>
	<path fill-rule="evenodd" clip-rule="evenodd" fill="#FEFEFF" d="M169.511,208.696c-0.135-0.094-0.271-0.188-0.406-0.281
		c0.127-0.036,0.274-0.133,0.376-0.097c0.198,0.07,0.18,0.242-0.02,0.413C169.46,208.732,169.511,208.696,169.511,208.696z"/>
	<path fill-rule="evenodd" clip-rule="evenodd" fill="#FEFEFF" d="M191.045,205.152c-0.024,0.046-0.059,0.108-0.093,0.172
		c-0.1-0.064-0.199-0.129-0.299-0.193c0.067-0.063,0.135-0.125,0.202-0.188C190.918,205.012,190.979,205.08,191.045,205.152z"/>
</g>
</svg>
